<svg
  width="207"
  height="213"
  viewBox="0 0 207 213"
  fill="none"
  xmlns="http://www.w3.org/2000/svg"
>
<path
    d="M97.5508 78.2197C98.1108 79.297 98.6042 80.177 99.0442 81.081C101.191 85.4797 102.498 90.0637 102.284 95.025C102.018 101.632 98.5108 106.11 93.0175 109.277C91.2975 110.268 89.3775 110.396 87.4575 109.968C86.9108 109.845 86.4041 109.533 86.2975 108.894C86.1775 108.244 86.5241 107.835 87.0575 107.557C87.3641 107.404 87.6575 107.229 87.9775 107.135C90.6975 106.337 92.6175 104.446 94.3641 102.376C95.9108 100.537 96.9241 98.3917 97.1374 95.9797C97.7241 89.2303 95.6175 83.3517 91.1109 78.3543C87.9109 74.813 83.6841 72.9543 79.2041 71.7223C72.9641 70.005 66.9908 70.773 61.3908 74.129C54.2055 78.4303 49.9041 84.7597 48.4468 92.925C47.5828 97.7661 48.0521 102.478 50.5934 106.936C53.7374 112.453 57.3642 117.489 62.4175 121.445C67.1108 125.113 71.6842 128.918 77.1508 131.446C80.0042 132.766 82.8309 134.122 85.6442 135.52C89.8309 137.594 94.3374 138.485 98.8708 139.274C99.6308 139.409 100.431 139.406 101.218 139.411C102.271 139.418 103.191 139.045 103.911 138.24C104.431 137.652 104.964 137.066 105.444 136.452C107.471 133.906 109.484 131.348 111.511 128.797C115.778 123.408 119.471 117.657 122.284 111.373C126.097 102.876 128.457 94.0636 127.991 84.6436C127.817 81.0037 126.978 77.5636 125.311 74.3076C123.964 71.653 121.844 69.957 119.057 69.0223C116.337 68.105 113.564 68.0317 110.764 68.6317C105.044 69.8557 100.938 73.301 97.5508 78.2197V78.2197ZM95.8708 75.2703C97.0041 72.8157 98.5642 70.7517 100.578 69.1303C106.764 64.1623 113.644 62.389 121.337 65.0477C124.764 66.2263 127.377 68.433 129.164 71.5957C131.177 75.165 132.484 78.9663 132.564 83.089C132.644 86.673 132.644 90.2677 132.484 93.8477C132.351 96.7661 131.564 99.5958 130.778 102.405C127.818 113.036 122.697 122.558 115.937 131.23C113.657 134.15 111.217 136.954 109.097 139.986C106.391 143.884 102.751 145.099 98.2708 144.337C93.1641 143.472 88.1508 142.348 83.4708 140.029C81.3641 138.984 79.2441 137.953 77.0975 136.977C69.3508 133.444 62.6974 128.325 56.4201 122.678C51.4148 118.178 47.8989 112.593 45.0549 106.557C43.1815 102.577 42.7801 98.3463 43.3521 94.0543C44.0081 89.117 45.5922 84.481 48.2895 80.2317C52.2402 74.0077 57.7841 69.8317 64.6575 67.3957C69.6441 65.6277 74.7642 65.505 79.8842 66.8743C85.1508 68.281 90.0175 70.493 94.0575 74.2637C94.3775 74.565 94.7508 74.8156 95.1241 75.0743C95.2041 75.1343 95.3241 75.133 95.8708 75.2703"
    fill="#FCD787"
  />
<path
    d="M123.831 4.85969C123.724 8.15436 122.791 12.093 122.084 16.061C120.618 24.333 119.124 32.6024 117.578 40.861C116.498 46.5877 115.338 52.2957 114.178 58.0064C114.071 58.533 113.778 59.0437 113.484 59.5064C113.151 60.0477 112.111 60.0677 111.711 59.5357C111.378 59.0997 110.991 58.5957 110.938 58.0917C110.804 56.653 110.658 55.181 110.818 53.7544C112.271 40.481 114.871 27.4064 117.738 14.381C118.484 10.9877 119.164 7.5797 119.911 4.1877C120.124 3.2077 120.418 2.23436 120.778 1.29836C121.124 0.405028 121.871 -0.0669788 122.551 0.0076879C123.258 0.0836879 123.764 0.73969 123.818 1.74369C123.871 2.52636 123.831 3.31302 123.831 4.85969"
    fill="#FCD787"
  />
<path
    d="M142.497 101.517C143.084 101.644 143.857 101.773 144.604 101.982C147.191 102.698 149.818 103.329 152.351 104.196C158.938 106.44 165.698 108.01 172.444 109.65C182.018 111.976 191.591 114.297 201.044 117.062C202.338 117.439 203.604 117.894 204.857 118.373C205.697 118.694 206.111 119.301 206.004 119.825C205.871 120.384 205.151 120.76 204.337 120.637C203.017 120.437 201.684 120.25 200.364 119.977C189.524 117.72 178.697 115.346 167.831 113.206C159.551 111.576 151.631 108.829 143.697 106.078C142.751 105.752 141.857 105.265 140.991 104.765C140.377 104.409 140.111 103.78 140.137 103.049C140.151 102.345 140.657 101.688 141.297 101.606C141.631 101.562 141.964 101.554 142.497 101.517"
    fill="#FCD787"
  />
<path
    d="M92.2574 171.157C92.0307 176.075 91.7908 180.994 91.5775 185.915C91.5108 187.592 91.564 189.277 91.4307 190.95C90.9774 196.863 90.5108 202.774 89.9775 208.68C89.8708 209.774 89.4707 210.851 89.1241 211.906C89.0441 212.127 88.5775 212.345 88.3108 212.329C88.0308 212.311 87.6308 212.05 87.5508 211.806C87.3108 211.075 87.084 210.305 87.0707 209.545C87.0173 206.745 86.9908 203.942 87.0441 201.145C87.2041 192.635 87.4307 184.129 87.5907 175.621C87.6707 171.142 87.6574 166.661 87.6974 162.18C87.6974 160.83 87.7375 159.481 88.3108 158.227C88.4975 157.832 88.7374 157.427 89.0574 157.135C89.5907 156.65 90.2708 156.577 90.9508 156.806C91.5241 157.001 91.844 157.477 91.9373 158.05C92.0173 158.487 92.0174 158.942 92.0174 159.389C92.0174 163.31 92.0174 167.23 92.0174 171.151C92.0974 171.153 92.1774 171.156 92.2574 171.157"
    fill="#FCD787"
  />
<path
    d="M47.0109 17.4397C47.1602 16.9037 47.2522 16.4678 47.4015 16.0518C47.5548 15.6278 48.5002 15.3557 48.8682 15.6437C49.3028 15.9837 49.7961 16.3171 50.0814 16.7691C50.8601 17.9998 51.6095 19.2584 52.2521 20.5651C55.2708 26.7091 58.1854 32.8984 60.8041 39.2264C63.0041 44.5131 65.3509 49.7304 67.5775 55.0011C68.4042 56.9624 69.1108 58.9784 69.8041 60.9904C70.0708 61.7451 70.0842 62.5477 69.3508 63.1317C68.7508 63.6011 67.7375 63.3931 67.0175 62.4397C66.0842 61.1837 65.2308 59.8597 64.4708 58.4944C62.0041 54.0784 59.8708 49.5037 57.9175 44.8411C54.9282 37.7011 51.8854 30.5824 48.8814 23.4478C48.4014 22.3131 47.9508 21.1598 47.5761 19.9864C47.3068 19.1411 47.1855 18.2477 47.0109 17.4397Z"
    fill="#FCD787"
  />
<path
    d="M122.924 139.856C123.204 139.938 123.911 140.01 124.458 140.338C125.324 140.85 126.151 141.46 126.858 142.161C130.378 145.622 133.844 149.13 136.924 153.013C142.084 159.523 147.071 166.16 151.578 173.146C152.671 174.841 153.711 176.577 154.724 178.318C155.004 178.79 155.218 179.337 155.311 179.875C155.351 180.117 155.071 180.468 154.858 180.68C154.738 180.796 154.364 180.824 154.244 180.723C153.631 180.254 152.964 179.797 152.484 179.206C150.018 176.158 147.604 173.053 145.137 169.999C140.977 164.853 136.804 159.709 132.591 154.606C131.311 153.053 129.844 151.645 128.458 150.174C126.458 148.051 124.444 145.939 122.444 143.815C121.831 143.157 121.284 142.46 121.204 141.494C121.137 140.682 121.764 139.892 122.924 139.856"
    fill="#FCD787"
  />
<path
    d="M61.8576 132.492C61.6843 132.982 61.5376 133.523 61.2976 134.006C60.3642 135.81 59.1723 137.439 57.7296 138.865C56.3776 140.204 54.9816 141.501 53.5709 142.78C47.6789 148.122 41.7749 153.453 35.8709 158.781C33.2096 161.184 30.571 163.611 27.8497 165.944C26.323 167.253 24.6602 168.405 23.0309 169.592C22.6842 169.844 22.235 169.984 21.8123 170.092C21.6416 170.134 21.3056 170.008 21.235 169.865C21.107 169.603 20.9843 169.196 21.1029 168.982C21.3656 168.504 21.7443 168.074 22.135 167.685C27.603 162.221 33.0016 156.687 38.5736 151.333C45.115 145.046 51.8043 138.913 58.439 132.722C58.927 132.269 59.4456 131.809 60.035 131.518C60.3643 131.356 60.8976 131.442 61.2709 131.596C61.5109 131.696 61.6309 132.114 61.8576 132.492"
    fill="#FCD787"
  />
<path
    d="M131.564 61.4731C130.737 61.4811 130.151 60.6491 130.417 60.2344C130.951 59.3917 131.484 58.5251 132.164 57.8024C135.391 54.3651 138.777 51.1064 142.457 48.1277C148.204 43.4677 153.804 38.6157 159.497 33.8691C161.991 31.7837 164.511 29.7277 167.071 27.7211C167.857 27.1091 168.777 26.6664 169.684 26.2357C169.884 26.1357 170.391 26.3131 170.537 26.5184C170.671 26.7077 170.604 27.1864 170.444 27.3957C169.964 28.0144 169.417 28.5864 168.857 29.1331C160.177 37.5984 151.284 45.8304 141.884 53.5037C140.151 54.9251 138.497 56.4411 136.751 57.8597C135.364 58.9931 133.924 60.0597 132.471 61.1131C132.137 61.3597 131.671 61.4331 131.564 61.4731Z"
    fill="#FCD787"
  />
<path
    d="M43.5216 113.634C44.6523 113.604 45.4176 114.686 44.9216 115.699C44.683 116.186 44.3455 116.69 43.9202 117.005C43.1122 117.601 42.2416 118.129 41.3416 118.573C31.0656 123.635 20.4709 127.876 9.39755 130.866C8.53488 131.099 7.6629 131.315 6.78557 131.488C6.3109 131.581 5.7883 131.396 5.74963 130.905C5.72296 130.561 6.01353 130.066 6.31486 129.852C6.8522 129.469 7.49496 129.218 8.11096 128.96C11.4163 127.57 14.7602 126.27 18.0268 124.799C25.3842 121.491 32.7016 118.096 40.039 114.744C41.1523 114.234 42.2203 113.565 43.5216 113.634"
    fill="#FCD787"
  />
<path
    d="M37.1189 96.0728C35.9002 95.9182 34.6696 95.8275 33.4669 95.5958C27.8683 94.517 22.2789 93.3903 16.6829 92.2983C12.5149 91.4863 8.33484 90.7356 4.17617 89.877C2.9895 89.6316 1.84694 89.1357 0.710935 88.6863C0.153602 88.465 -0.121091 87.753 0.0509093 87.2916C0.272243 86.6983 0.788232 86.3663 1.34023 86.3997C2.90023 86.4957 4.4615 86.6463 6.00416 86.8863C9.6495 87.4543 13.2949 88.0223 16.9189 88.7076C22.9589 89.849 28.9883 91.0516 35.0056 92.3023C36.3069 92.5716 37.5589 93.1116 38.8069 93.601C39.4229 93.841 40.0309 94.2157 40.0629 95.0063C40.0829 95.4599 39.3042 95.9171 38.4736 95.9599C38.0269 95.9823 37.5775 95.9635 37.1309 95.9635C37.1269 95.9994 37.1229 96.037 37.1189 96.0728"
    fill="#FCD787"
  />
<path
    d="M171.604 71.7143C172.724 71.7143 173.844 71.6636 174.951 71.7396C175.338 71.7676 175.764 72.0436 176.071 72.3143C176.324 72.5383 175.764 73.2676 175.097 73.477C174.137 73.7796 173.177 74.0836 172.191 74.2836C165.391 75.6663 158.577 76.9916 151.791 78.4023C148.831 79.0183 145.911 79.8103 142.978 80.4956C142.111 80.6996 141.231 80.865 140.337 80.9583C139.671 81.0303 138.964 80.4583 138.844 79.853C138.711 79.1356 138.884 78.4876 139.497 78.0796C140.057 77.7156 140.657 77.4236 141.271 77.161C144.284 75.865 147.471 75.237 150.671 74.673C155.844 73.7596 161.044 72.9316 166.244 72.1583C168.004 71.8943 169.817 71.905 171.604 71.7903C171.604 71.765 171.604 71.7383 171.604 71.7143"
    fill="#FCD787"
  />
<path
    d="M76.6176 141.074C76.5376 141.404 76.3775 142.287 76.0708 143.109C75.3775 144.881 74.6443 146.633 73.8843 148.369C71.5243 153.682 68.9909 158.916 65.9642 163.89C65.0442 165.413 63.9509 166.837 62.8843 168.269C62.6443 168.605 62.2042 168.87 61.8042 169.001C61.6175 169.063 61.2442 168.782 61.0576 168.57C60.9509 168.45 60.9642 168.132 61.0309 167.941C61.2975 167.21 61.5909 166.48 61.9242 165.773C65.6842 157.784 69.1642 149.678 72.4042 141.465C72.6575 140.842 72.9242 140.223 73.2309 139.634C73.7242 138.711 74.5643 138.374 75.4843 138.665C76.2043 138.896 76.6309 139.584 76.6176 141.074"
    fill="#FCD787"
  />
<path
    d="M134.364 125.196C134.764 125.308 135.418 125.458 136.044 125.68C142.751 128.023 149.164 130.97 155.151 134.792C156.178 135.447 157.071 136.316 157.978 137.149C158.151 137.309 158.164 137.841 158.031 138.068C157.898 138.297 157.458 138.509 157.191 138.464C156.538 138.352 155.898 138.128 155.271 137.878C148.938 135.308 142.591 132.74 136.271 130.128C135.031 129.616 133.831 128.977 132.684 128.292C131.844 127.792 131.591 126.95 131.871 126.297C132.204 125.544 132.884 125.133 133.764 125.162C133.871 125.166 133.991 125.174 134.364 125.196"
    fill="#FCD787"
  />
<path
    d="M93.8975 59.0117C93.7642 59.2237 93.6576 59.6357 93.4176 59.7437C93.0576 59.9051 92.5109 60.0184 92.1909 59.8531C91.6175 59.5478 91.0442 59.1064 90.6842 58.5797C87.9376 54.6811 86.0309 50.4038 85.1109 45.7144C84.9376 44.8571 85.3242 44.0411 85.9642 43.6811C86.7108 43.2571 87.8308 43.4451 88.4041 44.1584C88.7508 44.5917 89.0841 45.0664 89.2708 45.5811C90.8041 49.7971 92.2975 54.0264 93.7909 58.2544C93.8575 58.4598 93.8575 58.6944 93.8975 59.0117"
    fill="#FCD787"
  />
<path
    d="M50.3815 70.4677C49.8082 70.357 48.9148 70.273 48.0762 70.009C44.5615 68.9077 41.1242 67.5997 37.8789 65.8463C36.9042 65.3223 35.9908 64.6703 35.1095 63.997C34.7868 63.749 34.5895 63.289 34.4255 62.889C34.1295 62.1623 34.7669 61.1943 35.5415 61.1957C36.0909 61.197 36.6789 61.2037 37.1829 61.3877C41.7909 63.093 46.2175 65.1904 50.4868 67.621C50.9602 67.8917 51.3882 68.281 51.7522 68.693C51.9415 68.9063 52.0628 69.321 51.9935 69.5864C51.9228 69.8544 51.6028 70.0877 51.3428 70.2637C51.1735 70.3783 50.9175 70.3623 50.3815 70.4677"
    fill="#FCD787"
  />
<path
    d="M113.671 167.937C113.457 168.174 113.271 168.538 113.031 168.577C112.764 168.622 112.351 168.46 112.178 168.245C111.818 167.825 111.524 167.327 111.284 166.827C109.111 162.28 106.924 157.733 104.778 153.17C104.311 152.166 103.738 151.184 103.751 150.004C103.764 149.173 104.271 148.421 105.031 148.242C105.644 148.097 106.404 148.41 106.778 148.984C106.951 149.265 107.137 149.554 107.257 149.862C109.484 155.123 111.764 160.368 113.204 165.921C113.364 166.566 113.511 167.22 113.671 167.937"
    fill="#FCD787"
  />
</svg>
