<svg
  width="150"
  height="218"
  viewBox="0 0 150 218"
  fill="none"
  xmlns="http://www.w3.org/2000/svg"
>
<path
    d="M123.473 144.308C124.071 141.817 124.895 139.58 124.144 136.926C120.475 137.814 117.099 138.999 113.677 140.585C113.677 141.932 113.581 143.189 113.719 144.421C113.785 145.027 114.284 145.585 114.588 146.165C117.695 145.516 120.568 144.916 123.473 144.308ZM37.7494 10.5158C38.0467 10.4385 38.3707 10.4358 38.6374 10.2745C41.8747 8.3225 45.3214 7.68916 48.8534 7.46383C52.3907 7.23716 55.8454 7.98916 59.3041 8.72516C60.9241 9.07049 62.5321 9.51718 64.1561 9.81718C64.5294 9.88518 64.9801 9.60518 65.3374 9.35318C65.5787 9.18385 65.1827 8.33182 64.6867 8.15715C62.3654 7.34115 60.0654 6.33985 57.7014 5.82252C53.8214 4.97452 49.9201 4.2305 45.9641 5.50784C42.9787 6.47184 40.0561 7.50251 37.7494 10.5158V10.5158ZM109.971 142.369C109.081 141.669 108.38 141.851 107.729 142.037C102.879 143.425 98.0361 144.837 93.1947 146.256C92.7961 146.373 92.3334 146.499 92.0681 146.78C91.7187 147.149 91.4387 147.651 91.3161 148.141C91.2227 148.513 91.3787 148.971 91.4961 149.369C91.9894 151.043 92.6054 151.428 94.2467 151.045C98.8867 149.969 103.525 148.889 108.153 147.76C108.785 147.604 109.345 147.15 109.955 146.825C110.048 145.134 110.377 143.643 109.971 142.369V142.369ZM87.5827 148.083C87.2974 148.083 87.0041 148.025 86.7401 148.09C80.0454 149.74 73.3507 151.385 66.6707 153.092C66.0627 153.247 65.5587 153.805 64.8881 154.255C65.4601 155.425 65.8694 156.479 66.4787 157.397C66.7281 157.772 67.4054 158.003 67.9054 158.036C68.4361 158.069 68.9894 157.799 69.5307 157.649C74.6827 156.221 79.8361 154.791 84.9894 153.365C85.6667 153.177 86.3974 153.104 87.0147 152.8C87.4734 152.572 88.0241 152.105 88.1227 151.656C88.3881 150.443 88.6307 149.149 87.5827 148.083V148.083ZM48.6441 164.125C50.5987 164.292 52.0521 163.276 53.6534 162.831C55.1361 162.419 56.6201 161.965 58.0361 161.368C59.5427 160.731 61.4081 160.815 62.5761 159.14C62.5987 157.679 61.9694 156.304 61.4907 154.921C60.9067 154.775 60.4921 154.541 60.1241 154.6C55.0107 155.405 49.9027 156.247 44.7987 157.109C44.6027 157.143 44.4601 157.493 44.2334 157.769C44.7374 159.372 45.8947 160.631 46.836 162.007C47.3774 162.8 48.0841 163.48 48.6441 164.125V164.125ZM122.768 160.533C123.035 157.348 123.327 153.997 123.583 150.644C123.625 150.091 123.551 149.517 123.449 148.969C123.403 148.72 123.155 148.511 122.848 148.064C119.979 148.884 117.028 149.728 114.216 150.532C113.105 154.316 113.432 159.732 114.893 162.253C117.197 161.905 119.555 161.563 121.907 161.177C122.151 161.139 122.353 160.853 122.768 160.533ZM115.312 186.873C115.209 187.452 115.02 187.997 115.031 188.54C115.115 192.619 115.227 196.699 115.367 200.776C115.38 201.169 115.648 201.552 115.785 201.909C117.3 202.691 118.552 201.795 119.867 201.421C121.2 201.043 122.056 200.219 122.295 198.808C122.413 198.115 122.685 197.436 122.709 196.744C122.832 193.229 122.92 189.711 122.952 186.195C122.956 185.721 122.573 185.247 122.34 184.703C119.833 185.281 117.489 185.669 115.312 186.873V186.873ZM66.6014 197.3C67.2174 198.493 67.5334 199.256 67.9761 199.936C69.9627 202.993 71.952 206.052 74.0054 209.065C76.4387 212.636 77.1507 212.824 81.3321 211.283C81.4467 211.241 81.5161 211.077 81.7587 210.789C81.1627 208.335 80.1601 205.877 79.0827 203.463C77.9561 200.94 77.4321 198.117 75.6067 195.98C74.7694 195.98 74.0574 195.883 73.3801 195.997C71.3227 196.347 69.2801 196.777 66.6014 197.3V197.3ZM66.7881 172.921C65.9934 168.708 65.0894 166.061 63.4667 163.179C59.4401 164.551 55.1654 165.333 51.1601 167.044C50.9641 167.127 50.8974 167.509 50.7001 167.889C52.0307 170.263 53.3801 172.723 54.7921 175.148C55.1241 175.72 55.6641 176.172 56.1361 176.709C59.7241 175.433 63.1441 174.216 66.7881 172.921ZM122.383 164.143C120.004 164.416 117.844 165.003 115.689 165.591C114.504 165.913 114.187 166.395 114.141 167.757C114.113 168.6 114.112 169.448 114.16 170.289C114.353 173.659 114.58 177.027 114.776 180.396C114.869 181.992 115.329 182.923 117.509 182.339C118.589 182.049 119.731 181.993 120.841 181.816C122.544 181.541 122.899 181.121 123 179.301C123.008 179.16 123.012 179.02 123.011 178.879C122.963 174.516 122.929 170.153 122.847 165.789C122.837 165.271 122.563 164.757 122.383 164.143V164.143ZM109.556 188.467C108.883 188.467 108.161 188.316 107.532 188.492C105.124 189.173 102.547 189.319 100.121 190.673C100.627 195.587 101.121 200.46 101.644 205.329C101.669 205.572 101.941 205.787 102.201 206.164C104.827 206.245 107.3 205.185 109.82 204.421C110.249 204.291 110.711 203.667 110.816 203.196C110.995 202.387 110.968 201.513 110.915 200.675C110.677 197.025 110.412 193.377 110.117 189.731C110.087 189.347 109.795 188.985 109.556 188.467V188.467ZM64.8627 194.156C68.7294 193.615 71.1681 192.885 73.9921 191.429C73.4547 188.637 71.1934 182.251 69.2121 177.977C69.0361 177.6 68.7747 177.261 68.5814 176.949C64.8054 177.653 61.4401 178.585 58.1414 179.764C57.9321 179.837 57.8267 180.201 57.6734 180.431C58.9294 184.136 62.4334 190.828 64.8627 194.156V194.156ZM93.104 155.847C93.6734 158.801 94.1814 161.547 94.736 164.283C94.9747 165.455 95.6374 165.899 96.8441 165.82C97.2627 165.791 97.6854 165.769 98.0961 165.687C100.973 165.104 103.859 164.545 106.721 163.891C107.641 163.681 108.5 163.204 109.275 162.893C110.055 159.135 110.116 155.059 109.48 151.956C106.103 151.84 96.488 154.068 93.104 155.847V155.847ZM109.619 183.341C110.043 180.989 110.269 172.257 109.94 169.088C109.887 168.567 109.593 168.072 109.352 167.403C104.959 168.029 100.797 169.091 96.5574 170.251C96.4601 170.933 96.2441 171.491 96.3294 171.997C97.0987 176.54 98.0654 181.039 99.2694 185.428C102.967 185.325 107.261 184.443 109.619 183.341ZM88.6321 156.671C83.3174 157.403 71.6267 160.589 68.5054 162.165C69.3254 165.356 70.4241 168.451 72.3134 171.409C74.3427 170.932 76.2361 170.488 78.1281 170.039C81.8094 169.164 85.4934 168.305 89.1681 167.401C90.1534 167.159 90.6921 166.456 90.4787 165.561C89.7974 162.712 89.9747 159.691 88.6321 156.671V156.671ZM94.1294 191.787C90.2281 192.177 86.4027 193.024 82.6121 194.037C82.1134 194.169 81.6881 194.579 81.0681 194.957C81.8534 197.468 82.5614 199.883 83.3681 202.267C84.2121 204.764 84.4427 207.487 85.8787 209.667C86.3294 209.767 86.6241 209.928 86.8681 209.873C90.0161 209.159 93.1654 208.443 96.2974 207.661C97.1774 207.441 97.6547 206.633 97.4694 205.691C96.6054 201.283 95.6881 196.884 94.7787 192.487C94.7547 192.373 94.6001 192.285 94.1294 191.787V191.787ZM135.853 92.6025C137.06 92.2665 137.597 91.2145 138.187 90.2905C140.241 87.0758 141.903 83.6612 143.052 80.0158C144.179 76.4465 144.205 72.8545 143.476 69.1839C142.096 62.2292 138.696 56.3025 134.408 50.8025C133.893 50.1425 133.293 49.5065 132.615 49.0252C131.843 48.4785 130.98 47.8798 129.879 48.5398C129.737 49.8652 130.544 50.8999 131.024 52.0212C133.464 57.7199 135.789 63.4572 137.033 69.5612C138.405 76.2878 138.577 82.9612 136.104 89.5145C135.809 90.2958 135.624 91.1238 135.463 91.9452C135.428 92.1278 135.709 92.3732 135.853 92.6025V92.6025ZM131.012 83.7945C131.607 82.7132 131.947 82.3772 131.965 82.0212C132.123 79.0679 132.159 76.1438 131.639 73.1812C130.384 66.0345 127.895 59.3078 124.984 52.7265C119.805 41.0252 111.581 31.9585 100.728 25.2438C100.173 24.9012 99.6027 24.3798 98.3374 24.8652C101.081 27.6612 103.776 30.2558 106.117 33.1505C108.421 35.9985 110.779 38.8225 112.845 41.8385C114.991 44.9758 116.932 48.2678 118.749 51.6078C120.567 54.9465 122.253 58.3718 123.753 61.8625C125.196 65.2238 126.395 68.6972 127.579 72.1612C128.801 75.7345 129.457 79.4878 131.012 83.7945V83.7945ZM91.4054 171.831C90.5134 171.711 90.0814 171.533 89.7094 171.617C84.9147 172.709 80.1241 173.816 75.3441 174.969C74.1561 175.256 73.7974 176.033 74.2694 177.228C75.8707 181.28 77.5041 185.319 79.1641 189.345C79.3067 189.692 79.7467 189.916 80.1667 190.308C84.2187 189.369 88.3174 188.44 92.404 187.459C93.532 187.188 94.1147 186.355 93.9214 185.284C93.1254 180.872 92.2774 176.468 91.4054 171.831V171.831ZM119.549 99.9118C120.905 100.012 121.457 99.0958 122.18 98.4652C125.937 95.1798 127.272 91.1785 125.833 86.3172C124.596 82.1345 123.511 77.9038 122.189 73.7492C116.937 57.2132 108.177 42.7652 96.1107 30.3158C95.0361 29.2078 93.8574 28.1932 92.6734 27.2012C92.4494 27.0132 91.9667 27.1358 91.3001 27.0998C91.8054 27.7932 92.0747 28.2785 92.4494 28.6598C99.7147 36.0758 104.355 45.0212 107.463 54.7958C109.04 59.7545 110.311 64.8145 111.572 69.8652C113.073 75.8692 114.308 81.9412 115.863 87.9318C116.919 91.9932 118.076 96.0465 119.549 99.9118V99.9118ZM68.3881 17.7705C68.2961 18.0585 68.1961 18.2132 68.2361 18.2678C68.7307 18.9465 69.2054 19.6452 69.7587 20.2718C74.7467 25.9332 78.6947 32.2318 81.4147 39.2758C83.7521 45.3292 85.7374 51.5065 87.0227 57.8678C88.2787 64.0745 89.2481 70.3385 90.3667 76.5745C91.1894 81.1572 92.0761 85.7492 94.2574 89.9118C97.4121 95.9345 101.42 101.385 105.967 106.433C106.507 107.032 107.272 107.431 107.977 107.953C110.699 106.872 113.188 105.663 115.323 103.635C115.099 102.829 114.96 102.153 114.724 101.513C113.651 98.6038 112.565 95.7012 111.455 92.8065C109.787 88.4545 108.605 83.9758 107.581 79.4305C105.972 72.2865 104.304 65.1519 102.392 58.0865C100.197 49.9772 96.4707 42.5545 91.2921 35.9265C88.0654 31.7958 84.0547 28.4292 80.1054 25.0145C76.9907 22.3225 73.4921 20.2198 69.8881 18.2745C69.4321 18.0292 68.8907 17.9345 68.3881 17.7705V17.7705ZM73.9307 118.165C77.2547 117.316 80.2387 116.525 83.2374 115.789C89.1254 114.347 94.9654 112.752 100.677 110.712C101.361 110.469 101.967 110.168 102.021 109.123C101.628 108.723 101.157 108.209 100.651 107.733C96.8214 104.137 93.6894 99.9718 90.8054 95.6105C88.6907 92.4158 87.1641 88.9678 86.1641 85.2438C84.7721 80.0598 83.8774 74.7865 83.1334 69.4905C81.8147 60.1092 79.6507 50.9505 76.3934 42.0519C74.1427 35.9038 70.8641 30.3398 66.8241 25.2105C65.1574 23.0918 63.2614 21.2092 60.9481 19.7958C60.6627 19.6212 60.2307 19.6865 59.4881 19.5932C60.7654 21.3772 61.8387 22.8412 62.8774 24.3278C65.8174 28.5385 68.024 33.0932 68.9374 38.1665C69.612 41.9065 70.0694 45.6772 70.1454 49.5012C70.2907 56.7358 68.8281 63.7945 67.9867 70.9212C67.4414 75.5345 66.6027 80.1238 66.6107 84.7825C66.6174 89.1505 66.6161 93.5332 66.9747 97.8785C67.5654 105.04 70.7814 111.355 73.9307 118.165V118.165ZM51.0014 23.2078C51.4921 23.6838 52.0214 24.1292 52.4587 24.6518C52.7094 24.9492 53.0454 25.4705 52.9401 25.7225C52.3881 27.0519 52.9707 28.2105 53.3361 29.4038C55.7227 37.1718 55.7441 44.9332 53.1934 52.6572C52.3107 55.3278 51.3734 57.9918 50.2587 60.5718C47.7454 66.3852 45.0307 72.1132 42.5454 77.9385C41.0014 81.5585 39.5561 85.2385 38.3641 88.9865C36.0241 96.3412 35.2761 103.837 36.9921 111.475C38.0534 116.195 39.9747 120.553 42.3534 124.729C43.0427 125.94 43.7561 126.197 45.1974 125.888C45.7467 125.771 46.2761 125.565 46.8214 125.425C49.6827 124.685 52.5454 123.956 55.4067 123.22C59.4961 122.169 63.5827 121.113 67.6721 120.064C68.3907 119.879 69.0041 119.609 68.9801 118.824C67.2214 115.346 65.4521 111.984 63.8081 108.56C62.0201 104.836 61.0801 100.884 60.9894 96.7372C60.9467 94.7665 60.7547 92.7932 60.7987 90.8252C60.9041 86.1812 60.9001 81.5185 61.3374 76.8998C61.8001 72.0065 62.7694 67.1625 63.4241 62.2839C63.8361 59.2199 64.2001 56.1399 64.3587 53.0532C64.5694 48.9759 64.3147 44.9158 63.7374 40.8478C62.9414 35.2532 60.6974 30.3385 57.4934 25.7879C56.0147 23.6839 53.8134 22.9838 51.0014 23.2078V23.2078ZM38.0334 127.444C36.9054 125.516 36.0481 124.065 35.2041 122.605C33.7894 120.161 32.5534 117.628 31.8507 114.883C30.0814 107.967 29.8574 100.992 31.1694 93.9692C32.1827 88.5465 33.8441 83.3225 36.0427 78.2812C38.5174 72.6052 41.1894 67.0172 43.6427 61.3318C45.2027 57.7198 46.6241 54.0399 47.9014 50.3185C48.5787 48.3425 48.8427 46.2199 49.2374 44.1545C49.3374 43.6372 49.2827 43.0519 48.6187 42.8225C48.4041 42.9905 48.1321 43.1158 47.9881 43.3278C44.7867 48.0372 40.7187 51.9012 36.2921 55.4305C32.4374 58.4998 28.5054 61.4865 24.8081 64.7358C11.7747 76.1972 5.31874 90.6438 5.73341 108.025C5.95741 117.398 9.44539 125.549 15.6507 132.544C16.2854 133.261 17.0907 133.823 17.9654 134.588C20.4761 132.096 23.6494 131.412 26.772 130.623C29.6347 129.899 32.5147 129.241 35.3747 128.503C36.1547 128.301 36.8854 127.909 38.0334 127.444V127.444ZM126.453 102.489C125.48 103.361 124.657 104.128 123.804 104.857C119.051 108.918 113.853 112.297 107.935 114.355C101.955 116.433 95.9041 118.328 89.8294 120.112C83.8881 121.856 77.8841 123.386 71.8934 124.96C62.2281 127.497 52.5534 130.001 42.8774 132.504C37.2907 133.951 31.696 135.369 26.104 136.797C25.3854 136.981 24.8041 137.315 24.5227 138.377C25.0134 139.433 25.5507 140.726 26.1974 141.963C27.2414 143.96 28.5067 145.855 29.404 147.911C30.592 150.629 32.4587 151.531 35.4001 151.421C43.3027 151.124 51.1201 150.216 58.8414 148.58C77.7241 144.577 96.2907 139.375 114.701 133.6C119.14 132.209 123.516 130.621 127.644 128.464C129.376 127.557 131.057 126.469 132.549 125.212C134.86 123.267 135.8 120.656 135.36 117.633C134.792 113.728 134.076 109.849 132.836 106.094C132.491 105.046 131.953 104.063 131.507 103.056C129.821 102.868 128.295 102.696 126.453 102.489ZM38.3054 157.171C36.3174 157.171 34.492 157.129 32.6694 157.181C29.5334 157.269 27.2241 155.845 25.6547 153.255C24.0494 150.604 22.5161 147.901 21.1161 145.139C20.1281 143.188 18.8787 141.708 16.904 140.621C13.52 138.761 10.9254 135.911 8.64672 132.844C3.00939 125.257 0.253395 116.697 0.018728 107.24C-0.313272 93.9185 3.78274 82.0025 11.2001 71.1172C14.8054 65.8239 19.516 61.5572 24.404 57.4905C27.3307 55.0572 30.364 52.7532 33.3027 50.3345C36.356 47.8212 39.2014 45.0945 41.6294 41.9465C42.5481 40.7585 42.9761 39.5838 42.5934 38.0438C42.3254 36.9705 42.4801 35.7972 42.3814 34.6758C42.1267 31.7998 40.5721 29.8638 37.8094 29.3438C33.6321 28.5585 31.3187 29.1625 30.9707 34.6932C30.8987 35.8598 31.1787 36.9158 31.9374 37.8465C32.2734 38.2585 32.4947 38.7625 32.7107 39.1265C32.3294 40.1292 31.5347 40.1292 30.8907 40.2678C29.8121 40.5038 28.8027 40.1158 28.4481 39.0825C27.1254 35.2305 25.5694 31.4078 24.772 27.4385C23.992 23.5558 24.6014 19.5398 25.9254 15.7718C26.4707 14.2185 27.4481 12.7478 28.4894 11.4478C33.2987 5.45451 39.6987 2.1585 47.1587 0.767831C55.3907 -0.765502 63.4161 0.033175 71.2867 2.84518C79.3881 5.74118 87.3694 8.93982 95.0907 12.7252C103.481 16.8372 111.211 21.9918 118.225 28.1958C120.548 30.2505 122.979 32.1825 125.271 34.2665C128.921 37.5865 132.793 40.7238 136.035 44.4105C141.068 50.1372 145.465 56.3532 147.651 63.8585C149.688 70.8558 149.747 77.7078 146.856 84.5238C144.743 89.5065 142.077 94.0985 138.312 98.0172C137.925 98.4212 137.603 98.8838 137.127 99.4718C137.359 100.343 137.54 101.293 137.864 102.19C139.359 106.317 140.172 110.607 140.947 114.903C141.145 116.007 141.136 117.149 141.207 118.275C141.543 123.689 139.153 127.751 134.991 130.987C133.448 132.185 131.087 132.591 130.364 134.469C129.737 136.1 130.011 138.072 129.864 139.892C129.708 141.854 129.54 143.816 129.353 145.776C128.101 159 128.636 172.259 128.592 185.505C128.58 189.171 128.551 192.84 128.372 196.5C128.283 198.315 127.929 200.133 127.523 201.911C127.055 203.96 125.755 205.417 123.775 206.183C122.593 206.639 121.372 206.989 120.18 207.416C118.081 208.167 115.737 208.315 114.009 209.989C113.745 210.245 113.229 210.323 112.824 210.339C107.571 210.545 102.617 212.275 97.5481 213.389C92.8747 214.417 88.2667 215.741 83.6254 216.916C82.3974 217.227 81.1587 217.516 79.9107 217.733C76.1027 218.396 72.9574 217.359 70.6534 214.109C66.1641 207.781 61.7801 201.381 58.1974 194.489C55.5974 189.489 53.2814 184.34 50.6814 179.341C48.0801 174.343 45.2987 169.436 42.5627 164.511C41.2654 162.177 39.8867 159.892 38.3054 157.171"
    fill="#FCD787"
  />
</svg>
