<svg
  width="117"
  height="140"
  viewBox="0 0 117 140"
  fill="none"
  xmlns="http://www.w3.org/2000/svg"
>
<path
    d="M40.4673 134.889C42.0246 134.966 42.806 135.065 43.5833 135.034C48.1086 134.854 52.5353 134.078 56.906 132.894C69.2046 129.563 80.25 123.797 90.162 115.831C91.7873 114.525 93.3806 113.122 94.7446 111.55C98.9686 106.681 102.798 101.525 105.719 95.7326C110.183 86.8832 112.175 77.4926 111.246 67.6659C109.905 53.4952 104.483 40.9419 95.2673 30.0526C91.7166 25.8579 87.61 22.2606 83.4166 18.7326C76.262 12.7126 68.21 8.51658 59.082 6.47125C47.5726 3.89258 36.406 4.58992 25.6673 9.91259C21.1806 12.1379 16.9433 14.7472 12.8313 17.5619C11.0446 18.7845 9.21531 20.1219 8.00597 22.5272C9.09664 22.6566 9.8633 22.8059 10.634 22.8299C17.1393 23.0379 23.3927 24.4392 29.4607 26.7526C36.4313 29.4126 42.806 33.0259 48.5406 37.8713C54.758 43.1273 59.9753 49.1553 64.058 56.1819C67.246 61.6673 69.134 67.6419 70.5806 73.7699C71.8526 79.1619 71.9646 84.5899 71.1166 90.0766C68.934 104.201 61.642 115.589 51.9033 125.55C48.682 128.845 44.7433 131.438 40.4673 134.889V134.889ZM97.278 115.935C82.9113 128.97 68.23 135.91 51.7273 138.961C47.3233 139.775 42.7553 139.767 38.2553 139.971C36.6727 140.043 35.0393 139.741 33.4806 139.383C32.0766 139.062 30.6313 138.549 30.4126 136.753C30.226 135.226 31.218 134.374 32.3273 133.675C33.822 132.733 35.3806 131.89 36.9006 130.986C49.218 123.669 58.1607 113.398 63.4607 100.097C67.4727 90.0299 67.8646 79.7992 64.542 69.3606C60.8606 57.7979 54.2113 48.4419 44.9793 40.6606C37.5566 34.4032 29.21 30.1632 19.8673 27.7752C15.4846 26.6552 11.0393 25.8766 6.49399 26.0446C4.90199 26.1032 3.32063 26.4392 1.73397 26.6392C1.08997 26.7206 0.315302 26.7846 0.100635 26.0686C-0.0660318 25.5126 -0.0380213 24.6792 0.277979 24.2365C1.67531 22.2792 3.07266 20.2899 4.72199 18.5499C8.05666 15.0299 11.834 12.0126 16.0353 9.56858C21.33 6.48725 26.7446 3.65924 32.6793 1.96324C41.2326 -0.483425 49.9273 -0.520748 58.5326 1.17392C67.9566 3.02992 76.6686 6.77255 84.1646 12.9726C87.758 15.9472 91.354 18.9206 94.8726 21.9819C96.2033 23.1379 97.3927 24.4806 98.5273 25.8379C107.255 36.2846 113.293 48.0339 115.746 61.5206C117.921 73.4793 116.398 85.0006 111.254 95.9352C107.394 104.141 102.357 111.609 97.278 115.935"
    fill="#FCD787"
  />
</svg>
