<svg
  width="555"
  height="407"
  viewBox="0 0 555 407"
  fill="none"
  xmlns="http://www.w3.org/2000/svg"
>
<path
    d="M386.941 222.295C388.087 221.995 389.269 221.631 390.473 221.379C392.898 220.871 395.318 220.212 397.774 220.002C401.789 219.656 405.826 219.37 409.865 219.864C410.783 219.976 411.725 219.93 412.653 219.899C413.43 219.874 414.067 219.139 414.035 218.338C414.011 217.72 413.954 217.102 413.858 216.491C413.163 212.028 411.873 207.726 410.379 203.474C405.917 190.77 398.754 179.85 388.718 170.866C385.251 167.763 381.717 164.72 378.046 161.866C363.963 150.914 348.479 142.498 331.683 136.48C321.277 132.754 310.575 130.199 299.685 128.454C294.634 127.644 289.547 126.811 284.453 126.604C272.671 126.127 260.865 125.582 249.118 127.274C244.055 128.003 238.957 128.591 233.961 129.65C221.469 132.294 209.474 136.512 197.843 141.756C187.737 146.312 178.63 152.514 169.726 159.038C163.079 163.908 156.986 169.434 150.974 175.044C149.053 176.839 147.447 178.967 145.605 180.851C133.619 193.115 124.787 207.446 117.909 223.055C117.349 224.327 116.886 225.662 116.558 227.01C116.149 228.696 116.807 229.994 118.561 230.972C119.349 230.274 120.103 229.534 120.93 228.886C122.998 227.258 124.938 225.378 127.218 224.123C134.186 220.288 141.591 217.608 149.457 216.146C155.159 215.087 160.891 215.147 166.625 215.158C170.805 215.164 175.013 215.098 179.146 216.05C180.001 216.246 180.955 216.004 181.873 215.964C182.594 214.792 183.254 213.748 183.887 212.687C189.139 203.88 196.057 196.656 204.47 190.812C210.994 186.282 217.953 182.52 225.046 178.999C230.203 176.439 235.629 174.594 241.21 173.15C249.623 170.974 258.041 168.735 266.718 168.023C282.958 166.688 298.938 168.274 314.607 172.88C333.449 178.422 350.549 187.312 366.121 199.24C371.326 203.227 375.982 207.796 380.275 212.696C382.701 215.464 384.522 218.762 386.941 222.295V222.295ZM460.605 238.79C461.294 237.26 460.647 235.806 460.278 234.319C455.837 216.463 449.301 199.41 440.706 183.139C428.243 159.544 412.11 138.876 391.893 121.402C369.705 102.223 344.641 88.415 316.386 80.435C305.753 77.4323 294.927 75.3083 283.946 74.4616C276.087 73.8549 268.195 73.2723 260.235 73.8816C253.121 74.4269 246.014 74.847 238.949 75.935C228.49 77.547 218.275 80.1083 208.275 83.5296C183.373 92.0496 161.406 105.524 142.073 123.283C131.294 133.184 121.707 144.178 113.359 156.231C101.434 173.451 92.2659 192.043 85.5086 211.85C83.4339 217.928 82.6486 218.152 89.9032 217.802C97.7006 217.423 105.017 219.2 111.401 223.992C111.987 224.434 112.677 224.739 113.535 225.231C113.997 224.168 114.363 223.334 114.721 222.495C115.877 219.782 116.961 217.038 118.193 214.362C126.853 195.539 139.985 180.148 155.191 166.375C162.111 160.108 169.654 154.636 177.371 149.408C183.161 145.487 189.139 141.874 195.507 138.95C210.814 131.919 226.673 126.639 243.389 124.235C251.525 123.064 259.698 122.116 267.95 122.224C273.223 122.292 278.485 122.444 283.759 122.772C292.153 123.295 300.443 124.468 308.647 126.1C333.669 131.082 356.567 141.074 377.242 156.046C384.918 161.604 392.215 167.607 398.525 174.762C408.422 185.982 414.566 199.02 417.725 213.542C418.281 216.1 418.513 218.73 418.887 221.28C419.133 221.544 419.305 221.827 419.557 221.978C420.218 222.378 420.913 222.722 421.598 223.084C431.402 228.278 438.946 235.55 442.859 246.17C443.13 246.902 443.459 247.6 444.414 247.592C451.73 242.032 451.73 242.032 460.605 238.79V238.79ZM410.001 341.548C407.633 347.642 407.079 350.266 407.498 356.664C407.718 360.05 408.509 363.399 409.035 366.766C409.933 372.483 412.611 377.298 416.521 381.476C422.341 387.694 429.658 391.264 437.786 393.322C439.73 393.814 441.751 394.102 443.753 394.24C448.587 394.574 453.349 393.952 458.07 392.892C467.561 390.758 476.305 386.784 484.681 381.98C490.103 378.87 494.701 374.643 499.015 370.158C500.503 368.611 501.703 366.744 502.827 364.896C504.106 362.795 505.149 360.55 505.251 358.09C504.179 356.623 502.59 356.276 501.239 355.574C498.063 353.922 494.945 352.179 492.209 349.852C490.911 348.75 489.569 347.616 489.069 345.892C488.854 345.16 488.814 344.324 489.971 344.027C490.993 344.867 491.969 345.879 493.129 346.594C499.242 350.363 505.723 353.276 512.833 354.595C514.043 354.819 515.303 354.952 516.529 354.895C523.583 354.562 529.83 352.1 535.319 347.656C538.95 344.718 541.39 341.032 542.438 336.482C543.603 331.426 543.677 326.332 542.627 321.248C542.414 320.218 541.935 319.243 541.57 318.215C540.891 318.348 540.387 318.327 540.019 318.54C536.618 320.526 532.907 321.62 529.083 322.38C524.978 323.198 520.882 324.094 516.745 324.704C514.461 325.042 512.098 324.908 509.771 324.904C508.509 324.902 507.279 324.544 506.358 323.636C505.989 323.272 505.893 322.63 505.573 321.879C508.035 321.746 510.209 321.832 512.306 321.476C518.73 320.391 525.137 319.192 531.341 317.119C542.007 313.555 549.018 304.299 549.57 293.084C549.793 288.55 549.342 284.09 548.255 279.692C546.407 272.21 542.453 266.034 536.595 261.055C531.243 256.506 525.055 253.968 518.125 252.851C509.027 251.384 500.517 253.003 492.407 257.087C489.599 258.502 488.903 259.007 489.881 262.602C490.201 263.784 490.309 265.059 490.295 266.288C490.285 267.186 489.979 268.103 489.678 268.967C489.47 269.555 488.986 269.952 488.121 269.615C487.403 263.252 484.826 257.482 481.623 251.95C480.198 249.49 478.399 247.331 475.855 246C471.79 243.874 467.407 242.844 462.823 243.139C456.375 243.552 449.661 247.138 445.131 252.351C446.041 256.25 447.023 260.159 447.85 264.102C448.613 267.744 449.251 271.422 449.25 275.163C449.249 276.391 449.045 277.631 448.803 278.839C448.741 279.155 448.214 279.439 447.842 279.598C447.727 279.646 447.321 279.274 447.215 279.023C447.037 278.602 446.958 278.128 446.899 277.67C445.662 267.922 442.971 258.544 439.701 249.311C436.51 240.302 430.607 233.54 422.605 228.479C415.595 224.046 407.929 222.835 399.818 223.743C398.585 223.882 397.354 224.058 396.131 224.268C388.181 225.635 380.907 228.56 374.834 233.99C365.879 241.995 361.347 252.414 359.005 263.914C358.49 266.443 358.211 269.132 359.385 271.764C360.59 272.206 361.746 272.623 362.898 273.051C366.386 274.351 369.898 275.594 373.35 276.983C374.919 277.615 376.391 278.507 377.861 279.363C378.117 279.511 378.138 280.062 378.423 280.859C376.574 280.31 375.126 279.859 373.666 279.447C368.449 277.974 363.25 276.424 357.999 275.08C354.07 274.075 350.293 274.663 346.853 276.931C343.707 279.004 340.997 281.554 338.829 284.627C336.73 287.604 335.561 290.927 335.39 294.612C335.081 301.284 337.746 306.667 342.382 311.244C344.543 313.379 346.979 314.918 350.119 315.098C350.493 315.119 350.851 315.431 351.85 315.918C349.817 316.796 348.415 317.548 346.619 317.114C344.462 316.591 342.534 315.664 340.883 314.17C338.567 312.075 336.471 309.804 334.913 307.067C334.479 306.303 333.882 305.632 333.413 304.992C332.851 305.17 332.509 305.195 332.269 305.366C324.717 310.71 320.991 317.948 321.418 327.262C321.589 330.971 323.114 334.15 325.115 337.16C325.791 338.176 326.755 338.518 327.941 338.314C329.315 338.076 330.685 337.726 332.069 337.636C337.957 337.262 343.85 337.139 349.741 337.596C349.901 337.61 350.029 338.012 350.231 338.323C349.049 339.471 347.522 339.652 345.998 339.822C342.761 340.179 339.523 340.54 336.285 340.878C332.082 341.315 328.031 342.398 324.177 344.066C322.498 344.792 320.93 345.9 319.517 347.079C317.263 348.954 316.218 351.498 316.017 354.432C315.734 358.502 316.887 362.092 319.379 365.287C321.814 368.407 324.859 370.774 328.398 372.503C333.889 375.187 339.729 376.679 345.755 377.551C352.39 378.51 359.062 378.538 365.739 378.534C369.934 378.532 374.109 378.371 378.253 377.583C383.595 376.566 388.909 375.43 394.006 373.516C397.785 372.096 401.377 370.282 404.198 367.476C404.098 362.94 404.018 358.607 403.902 354.275C403.834 351.759 404.261 349.318 404.991 346.934C405.59 344.982 406.458 343.152 408.243 341.975C408.574 341.759 409.051 341.768 410.001 341.548V341.548ZM487.483 252.732C487.582 251.946 487.782 251.224 487.743 250.514C487.581 247.416 487.245 244.326 487.161 241.227C486.846 229.716 485.305 218.351 483.273 207.04C479.354 185.236 472.719 164.282 463.499 144.144C452.291 119.66 437.63 97.4443 419.395 77.6403C409.174 66.5389 398.007 56.4443 385.845 47.4683C363.361 30.875 338.745 18.6776 311.739 11.3923C302.591 8.92428 293.349 6.92027 283.906 5.95094C278.815 5.42694 273.734 4.63362 268.63 4.46695C259.481 4.16828 250.335 4.11895 241.177 4.96695C232.505 5.77095 223.929 6.99363 215.431 8.84963C180.998 16.3683 150.721 32.1336 124.285 55.275C112.105 65.935 101.213 77.8443 91.6526 90.9669C74.7299 114.198 62.5779 139.695 54.8739 167.343C51.3272 180.066 48.7472 192.975 47.2486 206.116C46.1912 215.383 45.4566 224.65 45.4792 233.974C45.4819 235.022 45.6686 236.068 45.8139 237.554C49.3819 234.446 52.5126 231.512 55.8646 228.862C59.1579 226.256 62.7846 224.08 66.7206 222.582C70.7632 221.042 74.9112 219.778 79.2472 218.314C79.5566 217.491 80.0206 216.511 80.2952 215.48C82.3752 207.667 85.0552 200.06 88.2152 192.623C100.867 162.851 119.051 137.059 143.575 115.854C164.307 97.9283 187.739 84.8776 214.038 77.0563C224.466 73.9549 235.053 71.6656 245.909 70.5816C253.326 69.8416 260.741 69.1736 268.193 69.1669C271.289 69.1643 274.382 69.671 277.479 69.711C284.493 69.803 291.411 70.7816 298.287 71.9563C315.202 74.8469 331.478 79.8963 347.029 87.1776C371.665 98.7083 393.145 114.534 411.541 134.59C416.797 140.322 421.81 146.231 426.442 152.47C444.915 177.354 457.859 204.846 465.119 234.974C465.846 237.988 467.071 239.238 470.25 239.707C477.026 240.707 482.503 244.02 485.557 250.524C485.947 251.356 486.274 252.251 487.483 252.732ZM88.1286 276.76C87.8246 276.44 87.4339 276.158 87.2112 275.776C85.6912 273.17 83.5953 271.112 81.1099 269.464C76.7113 266.547 72.3699 263.526 67.8219 260.86C60.7112 256.692 53.3446 253.216 44.8926 252.466C40.8246 252.106 36.8699 252.036 32.8846 252.864C26.7819 254.131 21.6286 257.222 16.9539 261.192C12.8912 264.642 9.46591 268.587 7.18857 273.499C2.15124 284.366 1.42857 304.324 9.2139 314.156C13.7619 322.256 20.2659 328.236 28.6819 332.164C28.9739 332.3 29.1152 332.76 29.3726 333.136C27.7646 333.684 26.4526 333.312 25.1272 332.784C22.6539 331.796 20.4139 330.422 18.2926 328.831C14.7939 326.206 11.6619 323.207 8.95124 319.771C8.47657 319.17 7.98058 318.547 6.76058 318.894C6.42725 319.506 5.89123 320.264 5.57523 321.106C2.00323 330.663 2.53789 340.164 7.16589 349.094C14.9419 364.096 27.5499 372.502 44.3099 374.664C51.1366 374.642 57.9726 374.828 64.7872 374.524C69.5752 374.31 74.3526 373.551 79.1006 372.815C88.2312 371.403 97.0592 369.124 104.417 363.06C104.531 362.964 104.914 363.194 105.283 363.304C105.091 363.714 104.989 364.176 104.711 364.483C102.285 367.172 99.3699 369.202 96.0952 370.731C92.7086 372.314 89.1713 373.456 85.5633 374.41C78.4886 376.279 71.2606 377.192 64.0126 378.007C62.9632 378.124 61.9326 378.398 60.7112 378.636C60.9259 379.44 60.9939 380.058 61.2472 380.586C62.4646 383.128 64.0832 385.388 66.0832 387.387C71.4326 392.735 77.6552 396.788 84.6366 399.618C92.9659 402.994 101.491 403.451 110.173 400.924C113.651 399.911 116.887 398.463 119.729 396.235C121.923 394.514 124.087 392.73 126.101 390.802C128.681 388.334 131.081 385.678 133.589 383.134C134.438 382.272 135.379 381.503 136.23 380.735C137.122 381.314 137.022 381.98 136.691 382.463C135.378 384.382 133.987 386.248 132.614 388.127C131.619 389.488 130.27 390.604 129.555 392.455C130.034 393.162 130.437 394.015 131.067 394.636C132.749 396.295 134.745 397.475 137.037 398.127C141.002 399.256 145.006 399.13 149.041 398.59C154.717 397.832 159.698 395.435 164.445 392.359C169.961 388.783 174.107 384.116 176.475 377.947C176.794 377.119 176.954 376.23 177.195 375.339C175.03 373.499 173.039 371.778 171.017 370.092C168.61 368.087 166.561 365.755 164.798 363.186C162.535 359.886 161.291 356.266 161.851 352.202C161.927 351.658 162.329 351.158 162.575 350.644C163.902 351.196 163.793 352.219 163.859 353.114C164.142 356.855 165.781 359.971 168.345 362.599C170.294 364.596 172.287 366.576 174.446 368.338C180.863 373.571 188.001 377.667 195.517 381.087C197.478 381.979 199.605 382.567 201.709 383.076C207.365 384.443 213.161 384.463 218.862 383.854C232.534 382.391 244.185 376.584 253.254 366.183C259.87 358.596 263.907 349.927 263.434 339.463C262.885 327.32 256.342 319.168 246.345 313.512C241.542 310.795 241.185 311.586 238.723 315.238C237.415 317.18 235.825 318.904 233.683 319.979C232.874 320.384 231.985 320.698 231.055 319.743C232.054 318.79 233.193 317.956 234.007 316.879C237.414 312.376 239.943 307.407 241.311 301.914C241.602 300.748 241.593 299.432 241.402 298.236C240.397 291.959 237.691 286.42 233.762 281.467C232.598 279.999 231.254 278.711 229.25 278.566C228.978 278.812 228.65 278.972 228.545 279.224C225.622 286.219 220.966 292.024 215.963 297.587C212.199 301.771 207.907 305.33 203.091 308.252C200.95 309.551 198.689 310.552 196.234 311.071C195.685 311.188 195.015 311.327 194.791 310.216C195.495 309.787 196.267 309.318 197.039 308.844C198.626 307.874 200.301 307.019 201.785 305.908C210.225 299.584 217.062 291.807 222.325 282.683C225.373 277.4 226.329 271.599 225.635 265.591C225.19 261.744 224.385 257.946 223.249 254.215C219.778 242.832 212.871 234.107 202.641 228.195C191.97 222.028 180.315 218.98 168.002 218.535C164.589 218.412 161.167 218.492 157.749 218.524C147.447 218.62 137.845 221.415 128.743 226.112C125.962 227.548 123.471 229.399 121.21 231.547C120.567 232.158 120.097 232.95 119.513 233.702C120.849 236.534 122.145 239.176 123.35 241.86C125.257 246.112 127.063 250.412 128.015 254.996C128.261 256.178 128.217 257.448 128.119 258.662C128.075 259.204 127.646 259.84 126.646 259.388C125.658 254.587 123.374 250.18 121.13 245.772C118.807 241.206 116.419 236.668 113.417 232.49C110.322 228.182 106.247 225.132 101.242 223.516C96.0326 221.834 90.6766 220.992 85.1752 222.052C84.1099 222.258 83.0179 222.315 81.9392 222.458C69.6272 224.088 59.2006 229.475 50.5352 238.312C48.9006 239.978 47.4979 241.843 46.5592 244.018C45.0099 247.608 45.4339 248.524 49.3259 249.404C53.7392 250.403 58.0912 251.648 62.0099 253.902C67.2552 256.918 72.3806 260.152 77.4579 263.448C80.4526 265.392 83.1766 267.727 85.6126 270.367C86.8846 271.747 88.0659 273.191 88.4926 275.079C88.6192 275.64 88.8606 276.275 88.1286 276.76V276.76ZM355.665 270.822C354.947 263.975 356.433 257.95 358.602 252.107C360.77 246.264 363.649 240.767 367.623 235.891C371.607 231 376.593 227.368 381.733 224.652C382.507 223.204 381.851 222.394 381.483 221.588C380.043 218.448 377.906 215.808 375.577 213.272C367.175 204.119 357.03 197.227 346.449 190.967C331.062 181.863 314.507 175.846 296.853 172.874C289.011 171.554 281.129 170.948 273.195 171.419C264.969 171.906 256.843 173.146 248.843 175.155C245.833 175.911 242.803 176.614 239.839 177.527C236.434 178.576 232.985 179.594 229.741 181.042C219.067 185.807 208.871 191.422 199.969 199.108C197.747 201.026 195.671 203.143 193.726 205.342C191.567 207.782 189.597 210.391 187.622 212.986C186.801 214.064 185.811 215.112 185.754 216.61C186.557 217.779 187.847 217.84 189.022 218.184C195.003 219.934 200.801 222.116 206.134 225.41C214.143 230.354 220.255 237.047 224.395 245.474C227.791 252.387 229.409 259.812 229.967 267.456C230.135 269.755 229.866 272.084 229.791 274.592C230.489 275.094 231.185 275.7 231.974 276.139C234.198 277.372 235.902 279.128 237.431 281.13C240.674 285.368 243.189 289.91 244.493 295.164C245.474 299.112 245.409 302.826 243.697 306.515C243.319 307.327 243.053 308.191 242.639 309.284C243.698 309.699 244.499 310.147 245.357 310.319C247.534 310.755 249.51 311.654 251.319 312.866C267.574 323.755 270.503 340.322 264.935 354.827C261.259 364.402 255.043 372.002 246.694 377.864C236.751 384.843 225.709 388.5 213.518 388.459C210.571 388.448 207.606 388.391 204.685 388.054C200.49 387.568 196.502 386.25 192.763 384.264C189.609 382.591 186.489 380.851 183.347 379.154C182.689 378.798 181.999 378.499 181.501 378.258C180.375 378.638 180.158 379.371 179.97 380.14C178.981 384.176 176.823 387.52 173.95 390.474C169.994 394.538 165.39 397.711 160.27 400.032C153.005 403.327 145.398 404.163 137.514 402.623C133.653 401.868 130.597 400.006 128.191 396.956C127.822 396.487 127.398 396.06 126.835 395.431C126.25 395.851 125.694 396.111 125.329 396.534C120.749 401.832 114.778 404.544 108.078 405.974C97.5752 408.211 87.7152 406.183 78.2859 401.479C74.3846 399.532 70.8112 397.039 67.4646 394.232C63.1126 390.58 59.5339 386.36 57.5979 380.916C57.3899 380.334 57.1086 379.776 56.8446 379.215C56.7832 379.083 56.6499 378.984 56.3206 378.612C55.6752 378.544 54.7779 378.386 53.8779 378.368C50.6166 378.308 47.3552 378.307 44.0939 378.26C37.2579 378.166 30.9366 376.112 24.9792 372.946C18.5846 369.548 13.1472 364.894 8.70856 359.2C1.68589 350.192 -1.07544 339.902 0.373893 328.578C0.847226 324.875 2.00589 321.31 3.97523 318.067C4.53523 317.146 5.05656 316.199 5.64189 315.186C5.13523 314.026 4.6339 312.899 4.1499 311.764C0.585902 303.423 -0.667443 294.783 0.83789 285.799C1.19656 283.659 1.5899 281.519 2.08057 279.406C3.7419 272.256 7.21391 266.14 12.5526 261.068C18.5166 255.403 25.1832 251.006 33.3792 249.363C35.1939 248.999 37.0766 248.987 38.9206 248.75C39.9486 248.616 40.9606 248.354 42.2419 248.096C40.7939 243.006 41.1766 238.046 41.1659 233.118C41.1552 228.147 41.1272 223.159 41.5019 218.208C43.5419 191.254 49.1872 165.102 59.3526 139.996C67.9766 118.699 79.2566 98.9269 93.5086 80.8869C99.5819 73.2003 106.059 65.851 113.149 59.0936C141.551 32.0216 174.713 13.6389 213.07 4.95094C222.602 2.79094 232.262 1.36696 242.051 0.646964C249.817 0.0762977 257.562 -0.139692 265.322 0.0909748C273.545 0.334975 281.705 1.28697 289.853 2.48297C304.205 4.59097 318.105 8.3576 331.695 13.3203C345.451 18.3443 358.542 24.7657 371.038 32.4016C384.871 40.8536 397.641 50.675 409.525 61.711C435.999 86.2923 455.878 115.454 470.303 148.46C478.613 167.471 484.502 187.224 488.209 207.611C489.705 215.846 490.867 224.142 491.495 232.52C491.923 238.255 492.265 243.978 492.338 249.724C492.347 250.466 492.553 251.204 492.654 251.856C494.229 252.376 495.257 251.519 496.363 251.082C502.227 248.762 508.295 247.598 514.594 248.091C531.174 249.391 543.315 257.323 550.322 272.552C552.537 277.368 553.486 282.567 554.034 287.87C554.591 293.248 553.982 298.39 552.046 303.391C550.921 306.298 549.411 309.012 547.518 311.503C546.675 312.608 545.841 313.72 544.87 315.004C545.222 315.984 545.589 316.98 545.935 317.983C548.347 324.951 548.481 331.948 546.346 339.023C544.855 343.952 542.085 347.942 538.091 351.147C530.213 357.472 521.338 360.431 511.199 359.218C510.747 359.163 510.286 359.211 509.587 359.211C509.227 360.158 508.766 361.118 508.494 362.13C507.255 366.755 504.75 370.654 501.539 374.098C495.769 380.284 489.214 385.47 481.551 389.155C474.969 392.32 468.323 395.296 461.203 397.124C454.347 398.884 447.407 399.554 440.419 398.627C432.762 397.611 425.765 394.667 419.41 390.256C414.75 387.023 410.817 383.091 408.113 378.06C407.091 376.163 406.302 374.143 405.369 372.09C404.849 372.155 404.314 372.062 404.017 372.283C397.755 376.96 390.455 379.078 383.003 380.748C377.086 382.074 371.09 382.808 364.997 382.787C358.467 382.764 351.951 382.588 345.473 381.795C339.439 381.056 333.566 379.61 327.997 377.106C323.697 375.172 319.802 372.63 316.767 368.97C312.583 363.922 310.689 358.238 312.126 351.638C313.002 347.607 315.267 344.595 318.589 342.308C319.853 341.438 321.202 340.688 322.351 339.982C322.71 338.838 322.047 338.326 321.589 337.739C319.318 334.823 318.283 331.528 318.078 327.828C317.523 317.818 321.531 310.06 329.39 304.099C330.13 303.536 330.881 302.986 331.618 302.42C331.738 302.328 331.813 302.179 331.983 301.963C332.575 300.548 332.119 298.988 332.031 297.471C331.378 286.203 337.083 278.65 346.21 273.119C348.074 271.99 350.169 271.338 352.391 271.211C353.291 271.16 354.183 271.003 355.665 270.822"
    fill="#FCD787"
  />
</svg>
