<svg
  width="278"
  height="221"
  viewBox="0 0 278 221"
  fill="none"
  xmlns="http://www.w3.org/2000/svg"
>
<path
    d="M157.678 172.108C161.557 174.894 165.37 177.533 169.069 180.318C172.498 182.898 175.806 185.641 179.174 188.305C180.416 189.288 181.676 190.252 182.94 191.212C182.981 191.243 183.13 191.128 183.315 191.043C183.264 190.732 183.273 190.368 183.141 190.065C181.187 185.565 179.225 181.068 177.237 176.585C176.74 175.465 176.145 174.39 175.585 173.298C174.58 171.341 173.042 170.504 170.787 170.685C167.365 170.956 163.929 171.028 160.5 171.204C159.89 171.236 159.274 171.311 158.684 171.46C158.367 171.541 158.103 171.825 157.678 172.108V172.108ZM220.649 123.957C219.115 127.04 218.451 129.781 217.717 132.489C216.68 136.317 217.608 139.52 220.973 141.851C221.376 142.129 221.743 142.459 222.124 142.769C227.257 146.955 232.454 151.067 237.237 155.664C237.44 155.859 237.803 155.89 238.207 156.04C237.192 153.286 226.016 132.361 222.588 126.769C222.091 125.959 221.51 125.2 220.649 123.957V123.957ZM45.5258 76.939C46.8377 76.8505 47.3018 76.8359 47.7618 76.7862C50.3253 76.5003 52.8802 76.0857 55.4518 75.9383C59.8621 75.6873 64.2876 75.2918 68.6801 76.2226C69.0387 76.2975 69.4194 76.2499 69.7827 76.2993C73.3124 76.7791 76.8555 77.1702 80.3623 77.7766C85.2167 78.6164 89.9005 80.1464 94.5619 81.6972C105.478 85.3297 115.704 90.3549 125.171 96.9216C132.876 102.265 140.167 108.09 146.492 115.042C149.057 117.86 151.528 120.768 153.939 123.719C158.372 129.146 162.797 134.589 166.331 140.678C166.452 140.887 166.588 141.11 166.775 141.248C166.951 141.379 167.246 141.513 167.411 141.449C167.573 141.387 167.77 141.035 167.723 140.879C167.51 140.18 167.24 139.494 166.946 138.824C164.62 133.534 162.209 128.28 159.973 122.954C156.832 115.473 153.826 107.937 150.747 100.431C149.755 98.012 149.138 95.5365 149.361 92.895C149.378 92.6862 149.179 92.4579 148.991 92.0414C148.602 91.8441 148.075 91.544 147.521 91.3021C143.241 89.4323 138.965 87.554 134.673 85.7141C125.164 81.6372 115.348 78.4697 105.333 75.9084C100.212 74.5993 95.0441 73.5313 89.8132 72.7397C84.708 71.9674 79.6047 71.2772 74.4348 71.0681C71.3432 70.943 68.2945 71.2635 65.2339 71.5105C59.3108 71.9885 53.607 73.4324 48.062 75.5259C47.4269 75.7658 46.8602 76.1863 45.5258 76.939V76.939ZM193.29 111.769C192.786 110.44 192.566 109.739 192.261 109.077C190.758 105.815 188.727 102.892 186.505 100.084C177.444 88.6386 166.29 79.6499 153.817 72.2199C147.665 68.5542 141.054 65.8567 134.359 63.3784C124.16 59.6036 113.667 57.0412 102.8 56.2836C94.6916 55.7191 86.5516 55.5579 78.4733 56.5721C67.0267 58.0069 56.1562 61.4304 45.8475 66.6446C37.1297 71.0541 29.8238 77.1378 23.8478 84.8428C23.5014 85.2887 22.9164 85.6649 23.1955 86.4782C24.2583 86.529 24.9227 85.7469 25.6863 85.2227C29.029 82.9204 32.3011 80.5151 35.6925 78.2876C45.2896 71.9834 55.9837 68.8673 67.3342 68.2594C74.9476 67.8519 82.5904 68.3445 90.1243 69.7384C97.2564 71.0576 104.341 72.58 111.309 74.6342C123.25 78.1546 134.842 82.55 146.041 87.9995C149.473 89.6702 152.737 91.6227 156.066 93.4754C163.051 97.3638 170.108 101.126 177.225 104.766C181.708 107.059 186.348 109.05 190.931 111.15C191.45 111.387 192.049 111.451 193.29 111.769V111.769ZM165.786 143.205C165.088 142.158 164.646 141.42 164.132 140.736C159.697 134.838 155.094 129.076 150.446 123.342C140.62 111.225 128.607 101.766 115.207 93.9847C106.337 88.8333 96.8279 85.1749 86.9694 82.3707C81.1501 80.715 75.2068 79.7406 69.2236 79.1643C63.6029 78.6241 57.9454 78.6285 52.2883 79.2852C43.8462 80.2643 35.9528 82.6698 28.7771 87.3182C26.3781 88.8748 24.2744 90.7302 22.3361 92.8008C22.1307 93.0215 22.0799 93.3873 21.9593 93.6838C22.1644 93.7738 22.2979 93.8852 22.3678 93.8544C23.0343 93.5554 23.7103 93.2678 24.3472 92.9125C31.2794 89.0434 38.7111 87.3274 46.6419 87.4462C53.5847 87.5509 60.3294 88.7624 66.9764 90.6433C74.6057 92.8016 81.6743 96.2152 88.4227 100.33C102.508 108.918 115 119.356 125.426 132.191C132.405 140.782 137.663 150.305 140.878 160.924C141.12 161.726 141.492 162.488 141.791 163.23C142.187 163.183 142.501 163.244 142.652 163.115C150.292 156.558 157.917 149.984 165.786 143.205V143.205ZM29.6858 72.6733C31.0395 71.6443 32.3701 70.5835 33.7477 69.5895C39.1638 65.6874 45.0396 62.6199 51.1637 59.9937C59.2399 56.5285 67.6679 54.2711 76.3368 53.0602C83.5259 52.0571 90.8013 52.0614 98.057 52.23C99.8925 52.2716 101.715 52.7289 103.552 52.8192C107.866 53.0346 112.095 53.7672 116.304 54.6724C134.698 58.6276 151.671 65.7715 166.813 77.0656C175.235 83.3482 182.939 90.362 189.348 98.7391C192.202 102.469 194.783 106.339 196.234 110.866C196.372 111.299 196.722 111.664 197.052 112.185C197.709 111.829 198.249 111.575 198.748 111.257C201.03 109.802 203.273 108.285 205.58 106.873C211.959 102.974 217.844 98.206 225.303 95.8727C224.919 95.2247 224.697 94.6394 224.3 94.2185C222.285 92.0675 220.344 89.8252 218.157 87.8582C207.795 78.5408 196.552 70.3723 184.817 62.8889C176.296 57.454 167.236 53.024 157.817 49.3607C151.275 46.8163 144.507 44.9907 137.684 43.3896C132.176 42.098 126.595 41.1374 120.961 40.6964C113.111 40.0821 105.252 39.9201 97.3716 40.484C92.9551 40.8006 88.5468 41.1048 84.1712 41.7775C78.8224 42.6006 73.4859 43.5279 68.383 45.3867C57.5398 49.3361 47.5648 54.8308 38.7907 62.3864C35.342 65.356 32.0369 68.4762 29.6858 72.6733V72.6733ZM224.69 100.531C223.563 100.796 223.074 100.817 222.679 101.021C221.371 101.699 220.059 102.383 218.817 103.173C212.69 107.066 206.59 110.999 200.47 114.904C199.539 115.499 198.588 116.084 197.583 116.535C196.78 116.894 195.795 116.965 195.168 116.249C194.293 115.245 193.094 114.98 191.976 114.516C188.568 113.105 185.083 111.862 181.756 110.288C177.2 108.132 172.744 105.765 168.277 103.428C163.921 101.148 159.609 98.7752 155.258 96.4824C154.66 96.1678 154.068 95.565 153.095 96.0412C153.083 96.4223 152.948 96.9185 153.08 97.3285C153.533 98.731 154.054 100.114 154.598 101.484C159.314 113.377 164.473 125.078 169.868 136.677C170.386 137.793 170.937 138.898 171.365 140.048C171.927 141.553 171.742 142.957 170.478 144.088C169.744 144.744 169.001 145.389 168.26 146.036C164.927 148.949 161.593 151.864 158.256 154.776C156.31 156.474 154.358 158.166 152.413 159.866C150.005 161.972 147.592 164.075 145.207 166.205C144.778 166.587 144.216 166.965 144.431 167.922C144.774 168.025 145.213 168.283 145.639 168.265C149.692 168.098 153.744 167.893 157.795 167.68C160.864 167.517 163.931 167.28 167.004 167.163C168.969 167.089 170.939 167.178 172.908 167.183C174.92 167.187 176.466 168.115 177.601 169.688C178.315 170.679 178.943 171.758 179.451 172.869C181.595 177.568 183.65 182.305 185.789 187.006C187.675 191.148 189.608 195.264 191.565 199.373C191.917 200.111 192.481 200.75 193.125 201.697C193.727 200.716 194.251 200.055 194.577 199.308C197.462 192.656 200.762 186.175 202.774 179.167C202.943 178.578 203.19 178.009 203.392 177.428C204.513 174.189 206.665 172.064 209.962 170.976C213.125 169.933 216.329 169.089 219.604 168.55C223.974 167.831 228.368 167.347 232.81 167.333C235.494 167.325 238.173 167.128 240.845 166.684C240.96 165.251 240.027 164.539 239.329 163.754C235.968 159.981 232.382 156.436 228.48 153.221C224.776 150.171 221.075 147.118 217.346 144.099C213.568 141.04 212.647 137.078 213.578 132.504C213.652 132.144 213.795 131.799 213.881 131.442C214.814 127.608 216.143 123.906 217.665 120.273C220.277 114.034 222.187 107.553 224.69 100.531V100.531ZM221.65 121.069C221.964 121.691 222.19 122.264 222.518 122.773C227.052 129.82 230.701 137.357 234.636 144.735C236.43 148.098 238.251 151.447 240.012 154.829C241.942 158.534 243.835 162.259 245.691 165.999C246.007 166.637 246.156 167.398 246.207 168.114C246.294 169.359 245.612 170.263 244.368 170.494C243.044 170.74 241.695 170.898 240.348 170.968C236.544 171.166 232.736 171.302 228.927 171.459C223.741 171.671 218.674 172.607 213.685 174.004C212.976 174.203 212.283 174.46 211.578 174.674C209.29 175.368 207.785 176.808 207.068 179.133C206.343 181.48 205.615 183.84 204.669 186.104C202.489 191.322 200.222 196.505 197.882 201.654C197.282 202.974 196.423 204.241 195.437 205.306C193.697 207.187 191.615 206.953 190.181 204.819C189.567 203.908 189.051 202.905 188.649 201.882C187.725 199.532 186.274 197.599 184.36 195.977C179.386 191.763 174.54 187.389 169.418 183.364C164.783 179.72 159.809 176.508 155.073 172.985C153.561 171.859 152.031 171.581 150.249 171.716C148.043 171.884 145.827 171.994 143.619 171.959C142.411 171.938 141.182 171.659 140.011 171.327C138.777 170.976 138.07 170.035 138.364 168.808C139.01 166.132 138.214 163.701 137.454 161.232C135.005 153.279 131.148 146.031 126.417 139.223C121.903 132.729 116.656 126.891 110.765 121.604C104.438 115.927 97.954 110.455 90.7586 105.899C84.5138 101.946 78.0995 98.2981 71.117 95.7756C65.9024 93.8902 60.5548 92.579 55.057 91.7476C50.2694 91.0224 45.5318 90.891 40.7278 91.4063C38.2592 91.6708 35.8517 92.1199 33.5261 92.9152C28.9604 94.4788 24.6889 96.6356 20.842 99.5813C20.2573 100.03 19.6976 100.513 19.1519 101.01C16.8683 103.084 15.369 105.476 15.6781 108.76C15.8259 110.341 15.657 111.953 15.6338 113.551C15.6292 114.08 15.468 114.607 14.916 114.661C14.481 114.704 13.9474 114.543 13.5824 114.293C13.1995 114.029 12.8751 113.59 12.6826 113.158C11.9833 111.592 11.2991 110.015 10.7189 108.402C10.5258 107.864 10.5591 107.191 10.6535 106.606C10.9457 104.789 11.3759 102.992 11.6448 101.171C11.899 99.4394 12.5149 97.8711 13.2715 96.3039C14.0161 94.7607 14.5887 93.1258 15.1411 91.4995C16.692 86.9496 18.635 82.5703 20.7527 78.2636C24.122 71.4126 29.0455 65.8049 34.7252 60.7967C43.6907 52.8953 53.859 47.0265 64.9832 42.7352C70.7602 40.5066 76.7749 39.2608 82.8641 38.3927C95.452 36.5981 108.104 36.2878 120.768 37.306C127.757 37.8675 134.641 39.1552 141.459 40.8193C157.137 44.6479 171.739 51.0483 185.382 59.5605C196.456 66.4676 207.003 74.1472 216.703 82.9231C219.256 85.2321 221.729 87.6303 224.167 90.058C225.118 91.0061 225.889 92.1394 226.71 93.2113C228.816 95.9634 229.228 98.9735 228.097 102.241C226.29 107.467 224.52 112.708 222.732 117.943C222.377 118.98 222.015 120.015 221.65 121.069"
    fill="#FCD787"
  />
</svg>
